<svg width="1280" height="73" viewBox="0 0 1280 73" fill="none" xmlns="http://www.w3.org/2000/svg">
<rect x="0.5" y="0.5" width="1279" height="72" rx="36" fill="#1C1C1C"/>
<rect x="0.5" y="0.5" width="1279" height="72" rx="36" stroke="#262626"/>
<path d="M31.5 36.125L39 28.625L46.5 36.125L39 43.625L31.5 36.125Z" fill="#CAFF33"/>
<path d="M51.5 31.125L46.5 36.125V28.625H39L44 23.625H51.5V31.125Z" fill="#CAFF33"/>
<path d="M51.5 41.125L46.5 36.125V43.625H39L44 48.625H51.5V41.125Z" fill="#CAFF33"/>
<path d="M26.5 41.125L31.5 36.125V43.625H39L34 48.625H26.5L26.5 41.125Z" fill="#CAFF33"/>
<path d="M26.5 31.125L31.5 36.125V28.625H39L34 23.625H26.5L26.5 31.125Z" fill="#CAFF33"/>
<path d="M68.515 29.625L63.9061 37.7631V43.1243H61.7339V37.7631L57.125 29.625H59.5994L62.8294 35.6033L66.0406 29.625H68.515Z" fill="white"/>
<path d="M72.381 43.375C70.9958 43.375 69.8184 42.8865 68.8488 41.9094C67.8792 40.9323 67.3944 39.7302 67.3944 38.3031C67.3944 36.8761 67.8792 35.674 68.8488 34.6969C69.8184 33.7198 70.9958 33.2312 72.381 33.2312C73.7788 33.2312 74.9562 33.7198 75.9133 34.6969C76.8829 35.674 77.3677 36.8761 77.3677 38.3031C77.3677 39.7302 76.8829 40.9323 75.9133 41.9094C74.9562 42.8865 73.7788 43.375 72.381 43.375ZM70.2844 40.4823C70.851 41.0608 71.5499 41.3501 72.381 41.3501C73.2121 41.3501 73.911 41.0608 74.4777 40.4823C75.0444 39.9038 75.3277 39.1774 75.3277 38.3031C75.3277 37.4289 75.0444 36.7025 74.4777 36.1239C73.911 35.5454 73.2121 35.2561 72.381 35.2561C71.5499 35.2561 70.851 35.5454 70.2844 36.1239C69.7177 36.7025 69.4344 37.4289 69.4344 38.3031C69.4344 39.1774 69.7177 39.9038 70.2844 40.4823Z" fill="white"/>
<path d="M85.5779 33.4819H87.6179V43.1243H85.5779V41.8901C84.9608 42.88 83.9849 43.375 82.6501 43.375C81.5671 43.375 80.692 43.0214 80.0245 42.3143C79.3571 41.6072 79.0234 40.6366 79.0234 39.4024V33.4819H81.0634V39.1902C81.0634 39.9102 81.2523 40.463 81.6301 40.8487C82.0079 41.2344 82.5242 41.4272 83.179 41.4272C83.8968 41.4272 84.476 41.2023 84.9168 40.7523C85.3575 40.2894 85.5779 39.5888 85.5779 38.6502V33.4819Z" fill="white"/>
<path d="M92.0433 35.1019C92.5596 33.9062 93.5293 33.3084 94.9522 33.3084V35.5647C94.1715 35.5133 93.4915 35.7061 92.9122 36.1432C92.333 36.5675 92.0433 37.2746 92.0433 38.2646V43.1243H90.0033V33.4819H92.0433V35.1019Z" fill="white"/>
<path d="M104.374 36.1239C104.953 36.4325 105.407 36.8568 105.734 37.3967C106.061 37.9367 106.225 38.5603 106.225 39.2674C106.225 40.373 105.841 41.2923 105.073 42.0251C104.305 42.7579 103.367 43.1243 102.258 43.1243H96.5917V29.625H101.843C102.926 29.625 103.839 29.985 104.582 30.7049C105.337 31.4121 105.715 32.2991 105.715 33.3662C105.715 34.5362 105.268 35.4554 104.374 36.1239ZM101.843 31.7077H98.764V35.2561H101.843C102.321 35.2561 102.724 35.089 103.052 34.7547C103.379 34.4076 103.543 33.9833 103.543 33.4819C103.543 32.9805 103.379 32.5627 103.052 32.2284C102.724 31.8813 102.321 31.7077 101.843 31.7077ZM102.258 41.0416C102.762 41.0416 103.184 40.8616 103.524 40.5016C103.877 40.1287 104.053 39.6788 104.053 39.1516C104.053 38.6245 103.877 38.181 103.524 37.821C103.184 37.4482 102.762 37.2617 102.258 37.2617H98.764V41.0416H102.258Z" fill="white"/>
<path d="M115.561 33.4819H117.601V43.1243H115.561V41.7358C114.792 42.8286 113.691 43.375 112.255 43.375C110.958 43.375 109.85 42.8865 108.931 41.9094C108.011 40.9194 107.552 39.7173 107.552 38.3031C107.552 36.8761 108.011 35.674 108.931 34.6969C109.85 33.7198 110.958 33.2312 112.255 33.2312C113.691 33.2312 114.792 33.7712 115.561 34.8512V33.4819ZM110.442 40.5209C111.008 41.0994 111.72 41.3887 112.576 41.3887C113.432 41.3887 114.144 41.0994 114.711 40.5209C115.277 39.9295 115.561 39.1902 115.561 38.3031C115.561 37.416 115.277 36.6832 114.711 36.1047C114.144 35.5133 113.432 35.2176 112.576 35.2176C111.72 35.2176 111.008 35.5133 110.442 36.1047C109.875 36.6832 109.592 37.416 109.592 38.3031C109.592 39.1902 109.875 39.9295 110.442 40.5209Z" fill="white"/>
<path d="M124.946 33.2312C126.029 33.2312 126.904 33.5848 127.572 34.2919C128.239 34.999 128.573 35.9697 128.573 37.2039V43.1243H126.533V37.416C126.533 36.6961 126.344 36.1432 125.966 35.7575C125.588 35.3718 125.072 35.179 124.417 35.179C123.7 35.179 123.12 35.4104 122.68 35.8732C122.239 36.3232 122.018 37.0175 122.018 37.956V43.1243H119.978V33.4819H122.018V34.7162C122.635 33.7262 123.611 33.2312 124.946 33.2312Z" fill="white"/>
<path d="M140.875 43.1243H138.287L133.074 36.7025V43.1243H130.902V29.625H133.074V35.6804L138.098 29.625H140.686L135.341 36.2011L140.875 43.1243Z" fill="white"/>
<path d="M1099.4 42.14C1098.86 42.14 1098.37 42.07 1097.91 41.93C1097.46 41.79 1097.05 41.58 1096.68 41.3C1096.32 41.0107 1095.99 40.656 1095.7 40.236L1096.74 39.046C1097.19 39.6993 1097.63 40.152 1098.05 40.404C1098.47 40.656 1098.97 40.782 1099.55 40.782C1099.9 40.782 1100.23 40.726 1100.52 40.614C1100.81 40.502 1101.03 40.348 1101.2 40.152C1101.37 39.956 1101.45 39.732 1101.45 39.48C1101.45 39.312 1101.43 39.1533 1101.37 39.004C1101.31 38.8547 1101.23 38.7193 1101.1 38.598C1100.99 38.4767 1100.84 38.3647 1100.66 38.262C1100.48 38.1593 1100.27 38.0707 1100.03 37.996C1099.78 37.912 1099.5 37.842 1099.19 37.786C1098.68 37.6833 1098.24 37.548 1097.87 37.38C1097.5 37.212 1097.18 37.002 1096.93 36.75C1096.68 36.498 1096.49 36.2133 1096.37 35.896C1096.25 35.5693 1096.19 35.2053 1096.19 34.804C1096.19 34.412 1096.27 34.048 1096.44 33.712C1096.62 33.376 1096.86 33.0867 1097.16 32.844C1097.46 32.592 1097.82 32.4007 1098.23 32.27C1098.64 32.13 1099.09 32.06 1099.56 32.06C1100.07 32.06 1100.53 32.1253 1100.95 32.256C1101.37 32.3867 1101.74 32.5827 1102.07 32.844C1102.4 33.096 1102.67 33.4087 1102.88 33.782L1101.82 34.832C1101.63 34.524 1101.42 34.2673 1101.19 34.062C1100.95 33.8473 1100.7 33.6887 1100.42 33.586C1100.14 33.474 1099.84 33.418 1099.52 33.418C1099.16 33.418 1098.84 33.474 1098.57 33.586C1098.3 33.698 1098.08 33.8567 1097.93 34.062C1097.78 34.258 1097.7 34.4913 1097.7 34.762C1097.7 34.958 1097.74 35.14 1097.81 35.308C1097.89 35.4667 1098 35.6113 1098.15 35.742C1098.31 35.8633 1098.52 35.9753 1098.78 36.078C1099.04 36.1713 1099.35 36.2553 1099.72 36.33C1100.23 36.442 1100.69 36.5867 1101.09 36.764C1101.49 36.932 1101.83 37.1327 1102.11 37.366C1102.39 37.5993 1102.6 37.8607 1102.74 38.15C1102.89 38.4393 1102.97 38.752 1102.97 39.088C1102.97 39.7133 1102.82 40.2547 1102.53 40.712C1102.24 41.1693 1101.83 41.524 1101.3 41.776C1100.77 42.0187 1100.13 42.14 1099.4 42.14ZM1104.98 42V34.65H1106.42V42H1104.98ZM1105.68 33.026C1105.37 33.026 1105.14 32.9467 1104.97 32.788C1104.8 32.6293 1104.72 32.4053 1104.72 32.116C1104.72 31.8453 1104.8 31.626 1104.97 31.458C1105.15 31.29 1105.38 31.206 1105.68 31.206C1105.99 31.206 1106.23 31.2853 1106.4 31.444C1106.56 31.6027 1106.65 31.8267 1106.65 32.116C1106.65 32.3867 1106.56 32.606 1106.38 32.774C1106.21 32.942 1105.98 33.026 1105.68 33.026ZM1111.93 45.22C1111.41 45.22 1110.89 45.136 1110.36 44.968C1109.85 44.8093 1109.43 44.5993 1109.12 44.338L1109.65 43.218C1109.84 43.358 1110.05 43.4793 1110.31 43.582C1110.56 43.694 1110.82 43.778 1111.1 43.834C1111.38 43.8993 1111.66 43.932 1111.93 43.932C1112.44 43.932 1112.87 43.848 1113.22 43.68C1113.56 43.512 1113.83 43.2647 1114 42.938C1114.18 42.6113 1114.27 42.2053 1114.27 41.72V40.306L1114.42 40.404C1114.38 40.6933 1114.22 40.9733 1113.96 41.244C1113.71 41.5053 1113.39 41.72 1113.01 41.888C1112.63 42.056 1112.23 42.14 1111.83 42.14C1111.13 42.14 1110.51 41.9767 1109.96 41.65C1109.42 41.314 1108.99 40.8613 1108.67 40.292C1108.35 39.7133 1108.19 39.0553 1108.19 38.318C1108.19 37.5807 1108.35 36.9273 1108.65 36.358C1108.97 35.7793 1109.4 35.3267 1109.94 35C1110.49 34.664 1111.11 34.496 1111.79 34.496C1112.07 34.496 1112.34 34.5333 1112.6 34.608C1112.86 34.6733 1113.11 34.7713 1113.33 34.902C1113.55 35.0233 1113.76 35.1587 1113.93 35.308C1114.11 35.4573 1114.25 35.616 1114.37 35.784C1114.48 35.952 1114.55 36.1107 1114.58 36.26L1114.27 36.372V34.65H1115.71V41.552C1115.71 42.14 1115.62 42.658 1115.44 43.106C1115.28 43.5633 1115.03 43.946 1114.7 44.254C1114.38 44.5713 1113.98 44.8093 1113.51 44.968C1113.05 45.136 1112.52 45.22 1111.93 45.22ZM1111.99 40.81C1112.44 40.81 1112.85 40.7027 1113.2 40.488C1113.56 40.2733 1113.83 39.9793 1114.03 39.606C1114.23 39.2327 1114.32 38.8033 1114.32 38.318C1114.32 37.8327 1114.22 37.4033 1114.02 37.03C1113.82 36.6473 1113.55 36.3487 1113.19 36.134C1112.85 35.9193 1112.44 35.812 1111.99 35.812C1111.54 35.812 1111.14 35.924 1110.78 36.148C1110.44 36.3627 1110.16 36.6613 1109.96 37.044C1109.76 37.4173 1109.66 37.842 1109.66 38.318C1109.66 38.794 1109.76 39.2233 1109.96 39.606C1110.16 39.9793 1110.44 40.2733 1110.78 40.488C1111.14 40.7027 1111.54 40.81 1111.99 40.81ZM1117.73 42V34.65H1119.17V36.162L1118.92 36.33C1119.02 36.0033 1119.2 35.7047 1119.47 35.434C1119.74 35.154 1120.06 34.93 1120.43 34.762C1120.81 34.5847 1121.19 34.496 1121.58 34.496C1122.14 34.496 1122.61 34.608 1122.98 34.832C1123.36 35.0467 1123.64 35.378 1123.82 35.826C1124.01 36.274 1124.1 36.8387 1124.1 37.52V42H1122.66V37.618C1122.66 37.198 1122.6 36.8527 1122.49 36.582C1122.38 36.302 1122.21 36.1013 1121.97 35.98C1121.74 35.8493 1121.45 35.7933 1121.11 35.812C1120.83 35.812 1120.57 35.8587 1120.34 35.952C1120.1 36.036 1119.9 36.1573 1119.72 36.316C1119.55 36.4747 1119.42 36.6613 1119.31 36.876C1119.22 37.0813 1119.17 37.3053 1119.17 37.548V42H1118.46C1118.34 42 1118.22 42 1118.1 42C1117.98 42 1117.85 42 1117.73 42ZM1134.15 42.084C1133.4 42.084 1132.72 41.9207 1132.12 41.594C1131.53 41.258 1131.06 40.8007 1130.71 40.222C1130.37 39.634 1130.21 38.9713 1130.21 38.234V32.186H1131.72V38.108C1131.72 38.584 1131.83 39.0133 1132.05 39.396C1132.28 39.7693 1132.57 40.068 1132.94 40.292C1133.31 40.516 1133.72 40.628 1134.15 40.628C1134.62 40.628 1135.04 40.516 1135.41 40.292C1135.8 40.068 1136.1 39.7693 1136.32 39.396C1136.55 39.0133 1136.66 38.584 1136.66 38.108V32.186H1138.1V38.234C1138.1 38.9713 1137.93 39.634 1137.58 40.222C1137.25 40.8007 1136.78 41.258 1136.18 41.594C1135.59 41.9207 1134.91 42.084 1134.15 42.084ZM1140.35 45.08V34.65H1141.8V36.33L1141.58 36.204C1141.63 35.924 1141.79 35.658 1142.05 35.406C1142.32 35.1447 1142.63 34.9347 1143.01 34.776C1143.39 34.608 1143.78 34.524 1144.18 34.524C1144.84 34.524 1145.43 34.6873 1145.95 35.014C1146.46 35.3407 1146.87 35.7887 1147.16 36.358C1147.46 36.9273 1147.61 37.5807 1147.61 38.318C1147.61 39.046 1147.46 39.6993 1147.16 40.278C1146.87 40.8473 1146.47 41.3 1145.96 41.636C1145.45 41.9627 1144.87 42.126 1144.22 42.126C1143.79 42.126 1143.38 42.042 1142.98 41.874C1142.58 41.6967 1142.24 41.4727 1141.96 41.202C1141.68 40.9313 1141.5 40.6513 1141.44 40.362L1141.8 40.166V45.08H1140.35ZM1143.99 40.796C1144.42 40.796 1144.8 40.6887 1145.13 40.474C1145.47 40.2593 1145.74 39.9653 1145.93 39.592C1146.13 39.2187 1146.23 38.794 1146.23 38.318C1146.23 37.842 1146.13 37.422 1145.93 37.058C1145.75 36.6847 1145.48 36.3907 1145.15 36.176C1144.81 35.9613 1144.42 35.854 1143.99 35.854C1143.55 35.854 1143.16 35.9613 1142.82 36.176C1142.49 36.3813 1142.22 36.6707 1142.03 37.044C1141.83 37.4173 1141.73 37.842 1141.73 38.318C1141.73 38.794 1141.83 39.2187 1142.03 39.592C1142.22 39.9653 1142.49 40.2593 1142.82 40.474C1143.16 40.6887 1143.55 40.796 1143.99 40.796Z" fill="white"/>
<rect x="1169" y="14" width="87" height="45" rx="22.5" fill="#CAFF33"/>
<path d="M1194.37 42V32.2H1195.88V40.544H1200.48V42H1194.37ZM1205.42 42.14C1204.7 42.14 1204.06 41.9767 1203.49 41.65C1202.93 41.314 1202.48 40.8613 1202.16 40.292C1201.83 39.7133 1201.67 39.0553 1201.67 38.318C1201.67 37.5807 1201.83 36.9273 1202.16 36.358C1202.48 35.7793 1202.93 35.3267 1203.49 35C1204.06 34.664 1204.7 34.496 1205.42 34.496C1206.13 34.496 1206.76 34.664 1207.32 35C1207.89 35.3267 1208.34 35.7793 1208.67 36.358C1208.99 36.9273 1209.16 37.5807 1209.16 38.318C1209.16 39.0553 1208.99 39.7133 1208.67 40.292C1208.34 40.8613 1207.89 41.314 1207.32 41.65C1206.76 41.9767 1206.13 42.14 1205.42 42.14ZM1205.42 40.824C1205.86 40.824 1206.25 40.7167 1206.6 40.502C1206.94 40.278 1207.21 39.9793 1207.41 39.606C1207.6 39.2233 1207.7 38.794 1207.69 38.318C1207.7 37.8327 1207.6 37.4033 1207.41 37.03C1207.21 36.6473 1206.94 36.3487 1206.6 36.134C1206.25 35.9193 1205.86 35.812 1205.42 35.812C1204.98 35.812 1204.58 35.924 1204.23 36.148C1203.88 36.3627 1203.61 36.6613 1203.42 37.044C1203.22 37.4173 1203.13 37.842 1203.14 38.318C1203.13 38.794 1203.22 39.2233 1203.42 39.606C1203.61 39.9793 1203.88 40.278 1204.23 40.502C1204.58 40.7167 1204.98 40.824 1205.42 40.824ZM1214.02 45.22C1213.5 45.22 1212.97 45.136 1212.45 44.968C1211.94 44.8093 1211.52 44.5993 1211.2 44.338L1211.74 43.218C1211.92 43.358 1212.14 43.4793 1212.39 43.582C1212.65 43.694 1212.91 43.778 1213.19 43.834C1213.47 43.8993 1213.75 43.932 1214.02 43.932C1214.53 43.932 1214.96 43.848 1215.31 43.68C1215.65 43.512 1215.91 43.2647 1216.09 42.938C1216.27 42.6113 1216.36 42.2053 1216.36 41.72V40.306L1216.51 40.404C1216.46 40.6933 1216.31 40.9733 1216.05 41.244C1215.8 41.5053 1215.48 41.72 1215.1 41.888C1214.71 42.056 1214.32 42.14 1213.92 42.14C1213.22 42.14 1212.6 41.9767 1212.04 41.65C1211.5 41.314 1211.07 40.8613 1210.76 40.292C1210.44 39.7133 1210.28 39.0553 1210.28 38.318C1210.28 37.5807 1210.43 36.9273 1210.74 36.358C1211.06 35.7793 1211.49 35.3267 1212.03 35C1212.58 34.664 1213.2 34.496 1213.88 34.496C1214.16 34.496 1214.43 34.5333 1214.69 34.608C1214.95 34.6733 1215.19 34.7713 1215.42 34.902C1215.64 35.0233 1215.84 35.1587 1216.02 35.308C1216.2 35.4573 1216.34 35.616 1216.45 35.784C1216.57 35.952 1216.64 36.1107 1216.66 36.26L1216.36 36.372V34.65H1217.8V41.552C1217.8 42.14 1217.71 42.658 1217.53 43.106C1217.36 43.5633 1217.12 43.946 1216.79 44.254C1216.46 44.5713 1216.07 44.8093 1215.6 44.968C1215.13 45.136 1214.61 45.22 1214.02 45.22ZM1214.07 40.81C1214.53 40.81 1214.94 40.7027 1215.29 40.488C1215.65 40.2733 1215.92 39.9793 1216.12 39.606C1216.31 39.2327 1216.41 38.8033 1216.41 38.318C1216.41 37.8327 1216.31 37.4033 1216.1 37.03C1215.91 36.6473 1215.63 36.3487 1215.28 36.134C1214.93 35.9193 1214.53 35.812 1214.07 35.812C1213.63 35.812 1213.23 35.924 1212.87 36.148C1212.53 36.3627 1212.25 36.6613 1212.04 37.044C1211.85 37.4173 1211.75 37.842 1211.75 38.318C1211.75 38.794 1211.85 39.2233 1212.04 39.606C1212.25 39.9793 1212.53 40.2733 1212.87 40.488C1213.23 40.7027 1213.63 40.81 1214.07 40.81ZM1220.06 42V34.65H1221.5V42H1220.06ZM1220.76 33.026C1220.45 33.026 1220.21 32.9467 1220.04 32.788C1219.88 32.6293 1219.79 32.4053 1219.79 32.116C1219.79 31.8453 1219.88 31.626 1220.04 31.458C1220.22 31.29 1220.46 31.206 1220.76 31.206C1221.07 31.206 1221.3 31.2853 1221.47 31.444C1221.64 31.6027 1221.72 31.8267 1221.72 32.116C1221.72 32.3867 1221.64 32.606 1221.46 32.774C1221.29 32.942 1221.06 33.026 1220.76 33.026ZM1223.72 42V34.65H1225.16V36.162L1224.91 36.33C1225 36.0033 1225.18 35.7047 1225.45 35.434C1225.72 35.154 1226.05 34.93 1226.42 34.762C1226.79 34.5847 1227.17 34.496 1227.57 34.496C1228.13 34.496 1228.59 34.608 1228.97 34.832C1229.34 35.0467 1229.62 35.378 1229.81 35.826C1229.99 36.274 1230.09 36.8387 1230.09 37.52V42H1228.64V37.618C1228.64 37.198 1228.59 36.8527 1228.48 36.582C1228.36 36.302 1228.19 36.1013 1227.96 35.98C1227.73 35.8493 1227.44 35.7933 1227.09 35.812C1226.81 35.812 1226.55 35.8587 1226.32 35.952C1226.09 36.036 1225.88 36.1573 1225.7 36.316C1225.54 36.4747 1225.4 36.6613 1225.3 36.876C1225.21 37.0813 1225.16 37.3053 1225.16 37.548V42H1224.44C1224.32 42 1224.2 42 1224.08 42C1223.96 42 1223.84 42 1223.72 42Z" fill="#1C1C1C"/>
<rect x="487.5" y="16" width="77" height="41" rx="20.5" fill="#262626"/>
<path d="M513.27 42V32.2H514.782V42H513.27ZM506.872 42V32.2H508.384V42H506.872ZM507.53 37.842V36.386H513.942V37.842H507.53ZM520.462 42.14C519.744 42.14 519.1 41.9767 518.53 41.65C517.97 41.314 517.527 40.8613 517.2 40.292C516.874 39.7133 516.71 39.0553 516.71 38.318C516.71 37.5807 516.874 36.9273 517.2 36.358C517.527 35.7793 517.97 35.3267 518.53 35C519.1 34.664 519.744 34.496 520.462 34.496C521.172 34.496 521.806 34.664 522.366 35C522.936 35.3267 523.384 35.7793 523.71 36.358C524.037 36.9273 524.2 37.5807 524.2 38.318C524.2 39.0553 524.037 39.7133 523.71 40.292C523.384 40.8613 522.936 41.314 522.366 41.65C521.806 41.9767 521.172 42.14 520.462 42.14ZM520.462 40.824C520.901 40.824 521.293 40.7167 521.638 40.502C521.984 40.278 522.254 39.9793 522.45 39.606C522.646 39.2233 522.74 38.794 522.73 38.318C522.74 37.8327 522.646 37.4033 522.45 37.03C522.254 36.6473 521.984 36.3487 521.638 36.134C521.293 35.9193 520.901 35.812 520.462 35.812C520.024 35.812 519.627 35.924 519.272 36.148C518.927 36.3627 518.656 36.6613 518.46 37.044C518.264 37.4173 518.171 37.842 518.18 38.318C518.171 38.794 518.264 39.2233 518.46 39.606C518.656 39.9793 518.927 40.278 519.272 40.502C519.627 40.7167 520.024 40.824 520.462 40.824ZM525.744 42V34.65H527.2V36.218L526.934 36.386C527.008 36.1433 527.125 35.91 527.284 35.686C527.452 35.462 527.652 35.266 527.886 35.098C528.128 34.9207 528.385 34.7807 528.656 34.678C528.936 34.5753 529.22 34.524 529.51 34.524C529.93 34.524 530.298 34.594 530.616 34.734C530.933 34.874 531.194 35.084 531.4 35.364C531.605 35.644 531.754 35.994 531.848 36.414L531.624 36.358L531.722 36.12C531.824 35.9053 531.964 35.7047 532.142 35.518C532.328 35.322 532.538 35.1493 532.772 35C533.005 34.8507 533.252 34.734 533.514 34.65C533.775 34.566 534.032 34.524 534.284 34.524C534.834 34.524 535.287 34.636 535.642 34.86C536.006 35.084 536.276 35.4247 536.454 35.882C536.64 36.3393 536.734 36.9087 536.734 37.59V42H535.278V37.674C535.278 37.254 535.222 36.9133 535.11 36.652C535.007 36.3813 534.848 36.1807 534.634 36.05C534.419 35.9193 534.144 35.854 533.808 35.854C533.546 35.854 533.299 35.9007 533.066 35.994C532.842 36.078 532.646 36.1993 532.478 36.358C532.31 36.5167 532.179 36.7033 532.086 36.918C531.992 37.1233 531.946 37.352 531.946 37.604V42H530.49V37.646C530.49 37.2633 530.434 36.9413 530.322 36.68C530.21 36.4093 530.046 36.204 529.832 36.064C529.617 35.924 529.356 35.854 529.048 35.854C528.786 35.854 528.544 35.9007 528.32 35.994C528.096 36.078 527.9 36.1993 527.732 36.358C527.564 36.5073 527.433 36.6893 527.34 36.904C527.246 37.1093 527.2 37.3333 527.2 37.576V42H525.744ZM542.094 42.14C541.338 42.14 540.666 41.9813 540.078 41.664C539.5 41.3373 539.042 40.894 538.706 40.334C538.38 39.774 538.216 39.13 538.216 38.402C538.216 37.8233 538.31 37.296 538.496 36.82C538.683 36.344 538.94 35.9333 539.266 35.588C539.602 35.2333 539.999 34.9627 540.456 34.776C540.923 34.58 541.427 34.482 541.968 34.482C542.444 34.482 542.888 34.5753 543.298 34.762C543.709 34.9393 544.064 35.1867 544.362 35.504C544.67 35.8213 544.904 36.1993 545.062 36.638C545.23 37.0673 545.31 37.5387 545.3 38.052L545.286 38.668H539.28L538.958 37.52H544.04L543.83 37.758V37.422C543.802 37.114 543.7 36.8387 543.522 36.596C543.345 36.3533 543.121 36.162 542.85 36.022C542.58 35.882 542.286 35.812 541.968 35.812C541.464 35.812 541.04 35.91 540.694 36.106C540.349 36.2927 540.088 36.5727 539.91 36.946C539.733 37.31 539.644 37.7627 539.644 38.304C539.644 38.8173 539.752 39.2653 539.966 39.648C540.181 40.0213 540.484 40.3107 540.876 40.516C541.268 40.7213 541.721 40.824 542.234 40.824C542.598 40.824 542.934 40.7633 543.242 40.642C543.56 40.5207 543.9 40.3013 544.264 39.984L544.992 41.006C544.768 41.23 544.493 41.426 544.166 41.594C543.849 41.762 543.508 41.8973 543.144 42C542.79 42.0933 542.44 42.14 542.094 42.14Z" fill="white"/>
<path d="M595.848 42.14C595.167 42.14 594.541 42.0187 593.972 41.776C593.403 41.5333 592.908 41.188 592.488 40.74C592.068 40.2827 591.741 39.746 591.508 39.13C591.284 38.514 591.172 37.8373 591.172 37.1C591.172 36.4 591.293 35.7513 591.536 35.154C591.788 34.5473 592.133 34.0153 592.572 33.558C593.011 33.1007 593.519 32.746 594.098 32.494C594.677 32.242 595.302 32.116 595.974 32.116C596.45 32.116 596.912 32.1907 597.36 32.34C597.817 32.48 598.228 32.6807 598.592 32.942C598.965 33.194 599.269 33.4833 599.502 33.81L598.494 34.86C598.223 34.5893 597.948 34.3653 597.668 34.188C597.397 34.0013 597.117 33.8613 596.828 33.768C596.548 33.6747 596.263 33.628 595.974 33.628C595.517 33.628 595.087 33.7167 594.686 33.894C594.294 34.062 593.949 34.3 593.65 34.608C593.361 34.916 593.132 35.2847 592.964 35.714C592.796 36.134 592.712 36.596 592.712 37.1C592.712 37.632 592.791 38.1173 592.95 38.556C593.118 38.9853 593.351 39.354 593.65 39.662C593.949 39.97 594.303 40.208 594.714 40.376C595.134 40.5347 595.596 40.614 596.1 40.614C596.408 40.614 596.711 40.572 597.01 40.488C597.309 40.404 597.589 40.2827 597.85 40.124C598.111 39.9653 598.349 39.7787 598.564 39.564L599.32 40.796C599.105 41.048 598.811 41.2767 598.438 41.482C598.074 41.6873 597.663 41.8507 597.206 41.972C596.758 42.084 596.305 42.14 595.848 42.14ZM603.838 42.14C603.231 42.14 602.676 41.972 602.172 41.636C601.677 41.3 601.281 40.8427 600.982 40.264C600.683 39.6853 600.534 39.032 600.534 38.304C600.534 37.5667 600.683 36.9133 600.982 36.344C601.29 35.7653 601.701 35.3127 602.214 34.986C602.737 34.6593 603.32 34.496 603.964 34.496C604.347 34.496 604.697 34.552 605.014 34.664C605.331 34.776 605.607 34.9347 605.84 35.14C606.083 35.336 606.279 35.5647 606.428 35.826C606.587 36.0873 606.685 36.3673 606.722 36.666L606.4 36.554V34.65H607.856V42H606.4V40.25L606.736 40.152C606.68 40.404 606.563 40.6513 606.386 40.894C606.218 41.1273 605.999 41.3373 605.728 41.524C605.467 41.7107 605.173 41.86 604.846 41.972C604.529 42.084 604.193 42.14 603.838 42.14ZM604.216 40.81C604.655 40.81 605.042 40.7027 605.378 40.488C605.714 40.2733 605.975 39.9793 606.162 39.606C606.358 39.2233 606.456 38.7893 606.456 38.304C606.456 37.828 606.358 37.4033 606.162 37.03C605.975 36.6567 605.714 36.3627 605.378 36.148C605.042 35.9333 604.655 35.826 604.216 35.826C603.787 35.826 603.404 35.9333 603.068 36.148C602.741 36.3627 602.48 36.6567 602.284 37.03C602.097 37.4033 602.004 37.828 602.004 38.304C602.004 38.7893 602.097 39.2233 602.284 39.606C602.48 39.9793 602.741 40.2733 603.068 40.488C603.404 40.7027 603.787 40.81 604.216 40.81ZM609.869 42V34.65H611.325V36.96L611.185 36.4C611.288 36.0453 611.461 35.7233 611.703 35.434C611.955 35.1447 612.24 34.916 612.557 34.748C612.884 34.58 613.22 34.496 613.565 34.496C613.724 34.496 613.873 34.51 614.013 34.538C614.163 34.566 614.279 34.5987 614.363 34.636L613.985 36.204C613.873 36.1573 613.747 36.12 613.607 36.092C613.477 36.0547 613.346 36.036 613.215 36.036C612.963 36.036 612.721 36.0873 612.487 36.19C612.263 36.2833 612.063 36.4187 611.885 36.596C611.717 36.764 611.582 36.9647 611.479 37.198C611.377 37.422 611.325 37.6693 611.325 37.94V42H609.869ZM618.631 42.14C617.875 42.14 617.203 41.9813 616.615 41.664C616.037 41.3373 615.579 40.894 615.243 40.334C614.917 39.774 614.753 39.13 614.753 38.402C614.753 37.8233 614.847 37.296 615.033 36.82C615.22 36.344 615.477 35.9333 615.803 35.588C616.139 35.2333 616.536 34.9627 616.993 34.776C617.46 34.58 617.964 34.482 618.505 34.482C618.981 34.482 619.425 34.5753 619.835 34.762C620.246 34.9393 620.601 35.1867 620.899 35.504C621.207 35.8213 621.441 36.1993 621.599 36.638C621.767 37.0673 621.847 37.5387 621.837 38.052L621.823 38.668H615.817L615.495 37.52H620.577L620.367 37.758V37.422C620.339 37.114 620.237 36.8387 620.059 36.596C619.882 36.3533 619.658 36.162 619.387 36.022C619.117 35.882 618.823 35.812 618.505 35.812C618.001 35.812 617.577 35.91 617.231 36.106C616.886 36.2927 616.625 36.5727 616.447 36.946C616.27 37.31 616.181 37.7627 616.181 38.304C616.181 38.8173 616.289 39.2653 616.503 39.648C616.718 40.0213 617.021 40.3107 617.413 40.516C617.805 40.7213 618.258 40.824 618.771 40.824C619.135 40.824 619.471 40.7633 619.779 40.642C620.097 40.5207 620.437 40.3013 620.801 39.984L621.529 41.006C621.305 41.23 621.03 41.426 620.703 41.594C620.386 41.762 620.045 41.8973 619.681 42C619.327 42.0933 618.977 42.14 618.631 42.14ZM626.834 42.14C626.078 42.14 625.406 41.9813 624.818 41.664C624.24 41.3373 623.782 40.894 623.446 40.334C623.12 39.774 622.956 39.13 622.956 38.402C622.956 37.8233 623.05 37.296 623.236 36.82C623.423 36.344 623.68 35.9333 624.006 35.588C624.342 35.2333 624.739 34.9627 625.196 34.776C625.663 34.58 626.167 34.482 626.708 34.482C627.184 34.482 627.628 34.5753 628.038 34.762C628.449 34.9393 628.804 35.1867 629.102 35.504C629.41 35.8213 629.644 36.1993 629.802 36.638C629.97 37.0673 630.05 37.5387 630.04 38.052L630.026 38.668H624.02L623.698 37.52H628.78L628.57 37.758V37.422C628.542 37.114 628.44 36.8387 628.262 36.596C628.085 36.3533 627.861 36.162 627.59 36.022C627.32 35.882 627.026 35.812 626.708 35.812C626.204 35.812 625.78 35.91 625.434 36.106C625.089 36.2927 624.828 36.5727 624.65 36.946C624.473 37.31 624.384 37.7627 624.384 38.304C624.384 38.8173 624.492 39.2653 624.706 39.648C624.921 40.0213 625.224 40.3107 625.616 40.516C626.008 40.7213 626.461 40.824 626.974 40.824C627.338 40.824 627.674 40.7633 627.982 40.642C628.3 40.5207 628.64 40.3013 629.004 39.984L629.732 41.006C629.508 41.23 629.233 41.426 628.906 41.594C628.589 41.762 628.248 41.8973 627.884 42C627.53 42.0933 627.18 42.14 626.834 42.14ZM631.608 42V34.65H633.064V36.96L632.924 36.4C633.026 36.0453 633.199 35.7233 633.442 35.434C633.694 35.1447 633.978 34.916 634.296 34.748C634.622 34.58 634.958 34.496 635.304 34.496C635.462 34.496 635.612 34.51 635.752 34.538C635.901 34.566 636.018 34.5987 636.102 34.636L635.724 36.204C635.612 36.1573 635.486 36.12 635.346 36.092C635.215 36.0547 635.084 36.036 634.954 36.036C634.702 36.036 634.459 36.0873 634.226 36.19C634.002 36.2833 633.801 36.4187 633.624 36.596C633.456 36.764 633.32 36.9647 633.218 37.198C633.115 37.422 633.064 37.6693 633.064 37.94V42H631.608ZM639.704 42.14C639.088 42.14 638.533 42.0327 638.038 41.818C637.543 41.6033 637.133 41.286 636.806 40.866L637.786 40.026C638.066 40.3527 638.369 40.5907 638.696 40.74C639.032 40.88 639.41 40.95 639.83 40.95C639.998 40.95 640.152 40.9313 640.292 40.894C640.441 40.8473 640.567 40.782 640.67 40.698C640.782 40.614 640.866 40.516 640.922 40.404C640.978 40.2827 641.006 40.152 641.006 40.012C641.006 39.7693 640.917 39.5733 640.74 39.424C640.647 39.3587 640.497 39.2887 640.292 39.214C640.096 39.13 639.839 39.046 639.522 38.962C638.981 38.822 638.537 38.6633 638.192 38.486C637.847 38.3087 637.581 38.108 637.394 37.884C637.254 37.7067 637.151 37.5153 637.086 37.31C637.021 37.0953 636.988 36.862 636.988 36.61C636.988 36.302 637.053 36.022 637.184 35.77C637.324 35.5087 637.511 35.2847 637.744 35.098C637.987 34.902 638.267 34.7527 638.584 34.65C638.911 34.5473 639.256 34.496 639.62 34.496C639.965 34.496 640.306 34.5427 640.642 34.636C640.987 34.7293 641.305 34.8647 641.594 35.042C641.883 35.2193 642.126 35.4293 642.322 35.672L641.496 36.582C641.319 36.4047 641.123 36.2507 640.908 36.12C640.703 35.98 640.493 35.8727 640.278 35.798C640.063 35.7233 639.867 35.686 639.69 35.686C639.494 35.686 639.317 35.7047 639.158 35.742C638.999 35.7793 638.864 35.8353 638.752 35.91C638.649 35.9847 638.57 36.078 638.514 36.19C638.458 36.302 638.43 36.428 638.43 36.568C638.439 36.6893 638.467 36.806 638.514 36.918C638.57 37.0207 638.645 37.1093 638.738 37.184C638.841 37.2587 638.995 37.338 639.2 37.422C639.405 37.506 639.667 37.5853 639.984 37.66C640.451 37.7813 640.833 37.9167 641.132 38.066C641.44 38.206 641.683 38.3693 641.86 38.556C642.047 38.7333 642.177 38.9387 642.252 39.172C642.327 39.4053 642.364 39.6667 642.364 39.956C642.364 40.376 642.243 40.754 642 41.09C641.767 41.4167 641.449 41.6733 641.048 41.86C640.647 42.0467 640.199 42.14 639.704 42.14Z" fill="white"/>
<path d="M669.85 42L673.644 32.2H675.184L678.95 42H677.34L675.1 36.092C675.072 36.0267 675.016 35.868 674.932 35.616C674.857 35.364 674.769 35.084 674.666 34.776C674.563 34.468 674.47 34.188 674.386 33.936C674.302 33.6747 674.246 33.5067 674.218 33.432L674.54 33.418C674.484 33.5767 674.414 33.7773 674.33 34.02C674.255 34.2627 674.171 34.5193 674.078 34.79C673.994 35.0607 673.91 35.3173 673.826 35.56C673.742 35.7933 673.672 35.9893 673.616 36.148L671.39 42H669.85ZM671.53 39.564L672.09 38.108H676.542L677.186 39.564H671.53ZM684.175 42.14C683.857 42.14 683.54 42.0887 683.223 41.986C682.915 41.8833 682.63 41.748 682.369 41.58C682.117 41.4027 681.902 41.2113 681.725 41.006C681.557 40.7913 681.445 40.5767 681.389 40.362L681.753 40.166V41.958H680.311V31.64H681.753V36.33L681.529 36.204C681.575 35.9893 681.678 35.784 681.837 35.588C681.995 35.3827 682.196 35.2007 682.439 35.042C682.691 34.874 682.961 34.7433 683.251 34.65C683.54 34.5473 683.834 34.496 684.133 34.496C684.795 34.496 685.383 34.6593 685.897 34.986C686.41 35.3127 686.816 35.7653 687.115 36.344C687.413 36.9133 687.563 37.5667 687.563 38.304C687.563 39.0413 687.413 39.6993 687.115 40.278C686.825 40.8567 686.424 41.314 685.911 41.65C685.397 41.9767 684.819 42.14 684.175 42.14ZM683.937 40.824C684.366 40.824 684.749 40.7167 685.085 40.502C685.421 40.278 685.687 39.9793 685.883 39.606C686.079 39.2233 686.177 38.7893 686.177 38.304C686.177 37.828 686.079 37.4033 685.883 37.03C685.696 36.6473 685.435 36.3487 685.099 36.134C684.763 35.9193 684.375 35.812 683.937 35.812C683.498 35.812 683.111 35.9193 682.775 36.134C682.439 36.3487 682.173 36.6473 681.977 37.03C681.781 37.4033 681.683 37.828 681.683 38.304C681.683 38.7893 681.781 39.2233 681.977 39.606C682.173 39.9793 682.439 40.278 682.775 40.502C683.111 40.7167 683.498 40.824 683.937 40.824ZM692.433 42.14C691.714 42.14 691.07 41.9767 690.501 41.65C689.941 41.314 689.498 40.8613 689.171 40.292C688.844 39.7133 688.681 39.0553 688.681 38.318C688.681 37.5807 688.844 36.9273 689.171 36.358C689.498 35.7793 689.941 35.3267 690.501 35C691.07 34.664 691.714 34.496 692.433 34.496C693.142 34.496 693.777 34.664 694.337 35C694.906 35.3267 695.354 35.7793 695.681 36.358C696.008 36.9273 696.171 37.5807 696.171 38.318C696.171 39.0553 696.008 39.7133 695.681 40.292C695.354 40.8613 694.906 41.314 694.337 41.65C693.777 41.9767 693.142 42.14 692.433 42.14ZM692.433 40.824C692.872 40.824 693.264 40.7167 693.609 40.502C693.954 40.278 694.225 39.9793 694.421 39.606C694.617 39.2233 694.71 38.794 694.701 38.318C694.71 37.8327 694.617 37.4033 694.421 37.03C694.225 36.6473 693.954 36.3487 693.609 36.134C693.264 35.9193 692.872 35.812 692.433 35.812C691.994 35.812 691.598 35.924 691.243 36.148C690.898 36.3627 690.627 36.6613 690.431 37.044C690.235 37.4173 690.142 37.842 690.151 38.318C690.142 38.794 690.235 39.2233 690.431 39.606C690.627 39.9793 690.898 40.278 691.243 40.502C691.598 40.7167 691.994 40.824 692.433 40.824ZM700.318 42.14C699.796 42.14 699.338 42.0187 698.946 41.776C698.564 41.5333 698.265 41.1927 698.05 40.754C697.845 40.3153 697.742 39.7927 697.742 39.186V34.65H699.184V38.794C699.184 39.2233 699.25 39.5967 699.38 39.914C699.52 40.222 699.716 40.46 699.968 40.628C700.23 40.796 700.542 40.88 700.906 40.88C701.177 40.88 701.424 40.838 701.648 40.754C701.872 40.6607 702.064 40.5347 702.222 40.376C702.39 40.2173 702.521 40.026 702.614 39.802C702.708 39.578 702.754 39.3353 702.754 39.074V34.65H704.196V42H702.754V40.46L703.006 40.292C702.894 40.6373 702.703 40.95 702.432 41.23C702.171 41.51 701.858 41.734 701.494 41.902C701.13 42.0607 700.738 42.14 700.318 42.14ZM707.129 42V32.774H708.571V42H707.129ZM705.603 36.05V34.65H710.279V36.05H705.603Z" fill="white"/>
<path d="M741.896 42.14C741.364 42.14 740.869 42.07 740.412 41.93C739.964 41.79 739.553 41.58 739.18 41.3C738.816 41.0107 738.489 40.656 738.2 40.236L739.236 39.046C739.693 39.6993 740.132 40.152 740.552 40.404C740.972 40.656 741.471 40.782 742.05 40.782C742.405 40.782 742.727 40.726 743.016 40.614C743.305 40.502 743.534 40.348 743.702 40.152C743.87 39.956 743.954 39.732 743.954 39.48C743.954 39.312 743.926 39.1533 743.87 39.004C743.814 38.8547 743.725 38.7193 743.604 38.598C743.492 38.4767 743.343 38.3647 743.156 38.262C742.979 38.1593 742.769 38.0707 742.526 37.996C742.283 37.912 742.003 37.842 741.686 37.786C741.182 37.6833 740.743 37.548 740.37 37.38C739.997 37.212 739.684 37.002 739.432 36.75C739.18 36.498 738.993 36.2133 738.872 35.896C738.751 35.5693 738.69 35.2053 738.69 34.804C738.69 34.412 738.774 34.048 738.942 33.712C739.119 33.376 739.357 33.0867 739.656 32.844C739.964 32.592 740.323 32.4007 740.734 32.27C741.145 32.13 741.588 32.06 742.064 32.06C742.568 32.06 743.03 32.1253 743.45 32.256C743.87 32.3867 744.243 32.5827 744.57 32.844C744.897 33.096 745.167 33.4087 745.382 33.782L744.318 34.832C744.131 34.524 743.921 34.2673 743.688 34.062C743.455 33.8473 743.198 33.6887 742.918 33.586C742.638 33.474 742.339 33.418 742.022 33.418C741.658 33.418 741.341 33.474 741.07 33.586C740.799 33.698 740.585 33.8567 740.426 34.062C740.277 34.258 740.202 34.4913 740.202 34.762C740.202 34.958 740.239 35.14 740.314 35.308C740.389 35.4667 740.501 35.6113 740.65 35.742C740.809 35.8633 741.019 35.9753 741.28 36.078C741.541 36.1713 741.854 36.2553 742.218 36.33C742.731 36.442 743.189 36.5867 743.59 36.764C743.991 36.932 744.332 37.1327 744.612 37.366C744.892 37.5993 745.102 37.8607 745.242 38.15C745.391 38.4393 745.466 38.752 745.466 39.088C745.466 39.7133 745.321 40.2547 745.032 40.712C744.743 41.1693 744.332 41.524 743.8 41.776C743.268 42.0187 742.633 42.14 741.896 42.14ZM750.674 42.14C749.918 42.14 749.246 41.9813 748.658 41.664C748.08 41.3373 747.622 40.894 747.286 40.334C746.96 39.774 746.796 39.13 746.796 38.402C746.796 37.8233 746.89 37.296 747.076 36.82C747.263 36.344 747.52 35.9333 747.846 35.588C748.182 35.2333 748.579 34.9627 749.036 34.776C749.503 34.58 750.007 34.482 750.548 34.482C751.024 34.482 751.468 34.5753 751.878 34.762C752.289 34.9393 752.644 35.1867 752.942 35.504C753.25 35.8213 753.484 36.1993 753.642 36.638C753.81 37.0673 753.89 37.5387 753.88 38.052L753.866 38.668H747.86L747.538 37.52H752.62L752.41 37.758V37.422C752.382 37.114 752.28 36.8387 752.102 36.596C751.925 36.3533 751.701 36.162 751.43 36.022C751.16 35.882 750.866 35.812 750.548 35.812C750.044 35.812 749.62 35.91 749.274 36.106C748.929 36.2927 748.668 36.5727 748.49 36.946C748.313 37.31 748.224 37.7627 748.224 38.304C748.224 38.8173 748.332 39.2653 748.546 39.648C748.761 40.0213 749.064 40.3107 749.456 40.516C749.848 40.7213 750.301 40.824 750.814 40.824C751.178 40.824 751.514 40.7633 751.822 40.642C752.14 40.5207 752.48 40.3013 752.844 39.984L753.572 41.006C753.348 41.23 753.073 41.426 752.746 41.594C752.429 41.762 752.088 41.8973 751.724 42C751.37 42.0933 751.02 42.14 750.674 42.14ZM758.569 42.14C757.888 42.14 757.277 41.972 756.735 41.636C756.203 41.3 755.779 40.8427 755.461 40.264C755.153 39.6853 754.999 39.0367 754.999 38.318C754.999 37.5993 755.153 36.9507 755.461 36.372C755.779 35.7933 756.203 35.336 756.735 35C757.277 34.664 757.888 34.496 758.569 34.496C759.223 34.496 759.815 34.6313 760.347 34.902C760.889 35.1633 761.299 35.5227 761.579 35.98L760.781 36.96C760.632 36.7453 760.441 36.5493 760.207 36.372C759.974 36.1947 759.727 36.0547 759.465 35.952C759.204 35.8493 758.952 35.798 758.709 35.798C758.261 35.798 757.86 35.91 757.505 36.134C757.16 36.3487 756.885 36.6473 756.679 37.03C756.474 37.4127 756.371 37.842 756.371 38.318C756.371 38.794 756.479 39.2233 756.693 39.606C756.908 39.9793 757.193 40.278 757.547 40.502C757.902 40.726 758.294 40.838 758.723 40.838C758.975 40.838 759.218 40.796 759.451 40.712C759.694 40.628 759.927 40.502 760.151 40.334C760.375 40.166 760.585 39.9607 760.781 39.718L761.579 40.698C761.281 41.118 760.851 41.4633 760.291 41.734C759.741 42.0047 759.167 42.14 758.569 42.14ZM765.516 42.14C764.993 42.14 764.536 42.0187 764.144 41.776C763.761 41.5333 763.462 41.1927 763.248 40.754C763.042 40.3153 762.94 39.7927 762.94 39.186V34.65H764.382V38.794C764.382 39.2233 764.447 39.5967 764.578 39.914C764.718 40.222 764.914 40.46 765.166 40.628C765.427 40.796 765.74 40.88 766.104 40.88C766.374 40.88 766.622 40.838 766.846 40.754C767.07 40.6607 767.261 40.5347 767.42 40.376C767.588 40.2173 767.718 40.026 767.812 39.802C767.905 39.578 767.952 39.3353 767.952 39.074V34.65H769.394V42H767.952V40.46L768.204 40.292C768.092 40.6373 767.9 40.95 767.63 41.23C767.368 41.51 767.056 41.734 766.692 41.902C766.328 42.0607 765.936 42.14 765.516 42.14ZM771.416 42V34.65H772.872V36.96L772.732 36.4C772.835 36.0453 773.008 35.7233 773.25 35.434C773.502 35.1447 773.787 34.916 774.104 34.748C774.431 34.58 774.767 34.496 775.112 34.496C775.271 34.496 775.42 34.51 775.56 34.538C775.71 34.566 775.826 34.5987 775.91 34.636L775.532 36.204C775.42 36.1573 775.294 36.12 775.154 36.092C775.024 36.0547 774.893 36.036 774.762 36.036C774.51 36.036 774.268 36.0873 774.034 36.19C773.81 36.2833 773.61 36.4187 773.432 36.596C773.264 36.764 773.129 36.9647 773.026 37.198C772.924 37.422 772.872 37.6693 772.872 37.94V42H771.416ZM777.301 42V34.65H778.743V42H777.301ZM778.001 33.026C777.693 33.026 777.455 32.9467 777.287 32.788C777.119 32.6293 777.035 32.4053 777.035 32.116C777.035 31.8453 777.119 31.626 777.287 31.458C777.464 31.29 777.702 31.206 778.001 31.206C778.309 31.206 778.547 31.2853 778.715 31.444C778.883 31.6027 778.967 31.8267 778.967 32.116C778.967 32.3867 778.878 32.606 778.701 32.774C778.533 32.942 778.299 33.026 778.001 33.026ZM781.869 42V32.774H783.311V42H781.869ZM780.343 36.05V34.65H785.019V36.05H780.343ZM787.564 45.22L789.048 41.79L789.062 42.938L785.394 34.65H787.074L789.37 40.054C789.417 40.1473 789.473 40.292 789.538 40.488C789.604 40.6747 789.66 40.8613 789.706 41.048L789.342 41.132C789.417 40.936 789.487 40.74 789.552 40.544C789.627 40.348 789.697 40.152 789.762 39.956L791.68 34.65H793.388L790.364 42L789.118 45.22H787.564Z" fill="white"/>
</svg>
